<!DOCTYPE svg PUBLIC "-//W3C//DTD SVG 1.1//EN" "http://www.w3.org/Graphics/SVG/1.1/DTD/svg11.dtd">
<!-- Uploaded to: SVG Repo, www.svgrepo.com, Transformed by: SVG Repo Mixer Tools -->
<svg height="800px" width="800px" version="1.1" id="Layer_1" xmlns="http://www.w3.org/2000/svg" xmlns:xlink="http://www.w3.org/1999/xlink" viewBox="-48.99 -48.99 587.90 587.90" xml:space="preserve" fill="#4a1ec2" stroke="#4a1ec2">
<g id="SVGRepo_bgCarrier" stroke-width="0">
<rect x="-48.99" y="-48.99" width="587.90" height="587.90" rx="0" fill="#aab6ee" strokewidth="0"/>
</g>
<g id="SVGRepo_tracerCarrier" stroke-linecap="round" stroke-linejoin="round"/>
<g id="SVGRepo_iconCarrier"> <g> <g> <circle style="fill:#b0b8f2;" cx="244.963" cy="244.925" r="58.8"/> <g> <path style="fill:#514ca4;" d="M244.963,312.725c-37.4,0-67.8-30.4-67.8-67.8s30.4-67.8,67.8-67.8s67.8,30.4,67.8,67.8 S282.363,312.725,244.963,312.725z M244.963,195.225c-27.4,0-49.7,22.3-49.7,49.7s22.3,49.7,49.7,49.7s49.7-22.3,49.7-49.7 S272.363,195.225,244.963,195.225z"/> </g> <path style="fill:#514ca4;" d="M244.963,137.325c5,0,9.1-4.1,9.1-9.1v-97.3l20.2,20.2c1.8,1.8,4.1,2.7,6.4,2.7s4.6-0.9,6.4-2.7 c3.5-3.5,3.5-9.3,0-12.8l-35.7-35.7c-3.5-3.5-9.3-3.5-12.8,0l-35.7,35.7c-3.5,3.5-3.5,9.3,0,12.8s9.3,3.5,12.8,0l20.2-20.2v97.3 C235.863,133.325,239.963,137.325,244.963,137.325z"/> <path style="fill:#514ca4;" d="M202.863,451.525l35.7,35.7c1.8,1.8,4.1,2.7,6.4,2.7c2.3,0,4.6-0.9,6.4-2.7l35.7-35.7 c3.5-3.5,3.5-9.3,0-12.8s-9.3-3.5-12.8,0l-20.2,20.2v-97.3c0-5-4.1-9.1-9.1-9.1s-9.1,4.1-9.1,9.1v97.3l-20.2-20.2 c-3.5-3.5-9.3-3.5-12.8,0S199.363,447.925,202.863,451.525z"/> <path style="fill:#514ca4;" d="M38.363,287.025c1.8,1.8,4.1,2.7,6.4,2.7c2.3,0,4.6-0.9,6.4-2.7c3.5-3.5,3.5-9.3,0-12.8l-20.2-20.2 h97.3c5,0,9.1-4.1,9.1-9.1s-4.1-9.1-9.1-9.1h-97.3l20.2-20.2c3.5-3.5,3.5-9.3,0-12.8s-9.3-3.5-12.8,0l-35.7,35.7 c-3.5,3.5-3.5,9.3,0,12.8L38.363,287.025z"/> <path style="fill:#514ca4;" d="M352.563,244.925c0,5,4.1,9.1,9.1,9.1h97.3l-20.2,20.2c-3.5,3.5-3.5,9.3,0,12.8 c1.8,1.8,4.1,2.7,6.4,2.7s4.6-0.9,6.4-2.7l35.7-35.7c3.5-3.5,3.5-9.3,0-12.8l-35.7-35.7c-3.5-3.5-9.3-3.5-12.8,0s-3.5,9.3,0,12.8 l20.2,20.2h-97.3C356.563,235.825,352.563,239.925,352.563,244.925z"/> <path style="fill:#514ca4;" d="M137.763,78.125c0-5-4.1-9.1-9.1-9.1h-50.5c-5,0-9.1,4.1-9.1,9.1v50.5c0,5,4.1,9.1,9.1,9.1 s9.1-4.1,9.1-9.1v-28.6l68.8,68.8c1.8,1.8,4.1,2.7,6.4,2.7s4.6-0.9,6.4-2.7c3.5-3.5,3.5-9.3,0-12.8l-68.8-68.8h28.6 C133.663,87.225,137.763,83.125,137.763,78.125z"/> <path style="fill:#514ca4;" d="M321.063,333.825l68.8,68.8h-28.6c-5,0-9.1,4.1-9.1,9.1s4.1,9.1,9.1,9.1h50.5c5,0,9.1-4.1,9.1-9.1 v-50.5c0-5-4.1-9.1-9.1-9.1s-9.1,4.1-9.1,9.1v28.6l-68.8-68.8c-3.5-3.5-9.3-3.5-12.8,0 C317.463,324.525,317.463,330.225,321.063,333.825z"/> <path style="fill:#514ca4;" d="M78.163,352.125c-5,0-9.1,4.1-9.1,9.1v50.5c0,5,4.1,9.1,9.1,9.1h50.5c5,0,9.1-4.1,9.1-9.1 s-4.1-9.1-9.1-9.1h-28.6l68.8-68.8c3.5-3.5,3.5-9.3,0-12.8s-9.3-3.5-12.8,0l-68.8,68.8v-28.6 C87.263,356.225,83.163,352.125,78.163,352.125z"/> <path style="fill:#514ca4;" d="M321.063,168.825c1.8,1.8,4.1,2.7,6.4,2.7s4.6-0.9,6.4-2.7l68.8-68.8v28.6c0,5,4.1,9.1,9.1,9.1 s9.1-4.1,9.1-9.1v-50.5c0-5-4.1-9.1-9.1-9.1h-50.5c-5,0-9.1,4.1-9.1,9.1s4.1,9.1,9.1,9.1h28.6l-68.8,68.8 C317.463,159.625,317.463,165.325,321.063,168.825z"/> </g> </g> </g>
</svg>