<!DOCTYPE svg PUBLIC "-//W3C//DTD SVG 1.1//EN" "http://www.w3.org/Graphics/SVG/1.1/DTD/svg11.dtd">
<!-- Uploaded to: SVG Repo, www.svgrepo.com, Transformed by: SVG Repo Mixer Tools -->
<svg height="800px" width="800px" version="1.1" id="Layer_1" xmlns="http://www.w3.org/2000/svg" xmlns:xlink="http://www.w3.org/1999/xlink" viewBox="-51.2 -51.2 614.40 614.40" xml:space="preserve" fill="#000000" transform="rotate(90)">
<g id="SVGRepo_bgCarrier" stroke-width="0">
<rect x="-51.2" y="-51.2" width="614.40" height="614.40" rx="0" fill="#d0d3fb" strokewidth="0"/>
</g>
<g id="SVGRepo_tracerCarrier" stroke-linecap="round" stroke-linejoin="round"/>
<g id="SVGRepo_iconCarrier"> <circle style="fill:#7147e6;" cx="246.193" cy="241.451" r="62.693"/> <g> <circle style="fill:#7147e6;" cx="246.193" cy="49.648" r="36.755"/> <circle style="fill:#7147e6;" cx="381.815" cy="377.073" r="36.755"/> <circle style="fill:#7147e6;" cx="54.399" cy="241.451" r="36.755"/> </g> <g> <circle style="fill:#753cfb;" cx="443.033" cy="115.508" r="51.311"/> <circle style="fill:#753cfb;" cx="140.45" cy="447.798" r="51.311"/> </g> <path style="fill:#7147e6;" d="M443.04,51.311c-35.402,0-64.204,28.802-64.204,64.204c0,6.474,0.973,12.725,2.763,18.622 l-81.022,54.892c-10.922-11.327-25.331-19.256-41.488-22.046V97.588c21.144-5.692,36.755-25.024,36.755-47.94 C295.843,22.271,273.572,0,246.195,0s-49.648,22.271-49.648,49.648c0,22.918,15.611,42.247,36.755,47.94v69.392 c-31.362,5.415-56.155,30.208-61.57,61.57H102.34c-5.692-21.144-25.024-36.755-47.94-36.755c-27.377,0-49.648,22.271-49.648,49.648 s22.271,49.648,49.648,49.648c22.918,0,42.247-15.611,47.94-36.755h69.392c3.333,19.307,14.001,36.134,29.039,47.477l-43.116,84.137 c-41.091-11.446-81.406,19.696-81.406,61.844c0,35.402,28.802,64.204,64.204,64.204s64.204-28.802,64.204-64.204 c0-20.222-9.407-38.28-24.064-50.056l43.11-84.127c22.089,6.899,46.509,3.359,66.006-10.42l49.083,49.081 c-10.831,18.728-8.529,43.449,7.918,59.898c19.405,19.402,50.809,19.405,70.212,0c19.407-19.404,19.405-50.807,0.002-70.212 c-16.411-16.414-41.128-18.775-59.898-7.92l-49.081-49.083c15.505-21.938,18.142-50.283,7.122-74.598L394,156.886 c11.786,13.951,29.394,22.833,49.043,22.833c35.402,0,64.204-28.802,64.204-64.204C507.244,80.113,478.442,51.311,443.04,51.311z M140.453,486.213c-21.183,0-38.417-17.232-38.417-38.417c0-21.185,17.233-38.417,38.417-38.417 c21.183,0,38.417,17.233,38.417,38.417C178.871,468.981,161.636,486.213,140.453,486.213z M222.335,49.648 c0-13.156,10.705-23.861,23.861-23.861s23.861,10.705,23.861,23.861S259.353,73.51,246.197,73.51S222.335,62.805,222.335,49.648z M54.401,265.306c-13.156,0-23.861-10.705-23.861-23.861s10.705-23.861,23.861-23.861s23.861,10.705,23.861,23.861 C78.261,254.602,67.557,265.306,54.401,265.306z M196.397,241.444c0-27.46,22.34-49.8,49.8-49.8s49.8,22.34,49.8,49.8 s-22.34,49.8-49.8,49.8S196.397,268.904,196.397,241.444z M398.688,360.193c9.328,9.325,9.328,24.417,0,33.745 c-9.326,9.326-24.418,9.326-33.743-0.002c-0.002,0-0.002,0-0.002,0c-9.326-9.326-9.326-24.418,0.002-33.743 C374.27,350.865,389.364,350.866,398.688,360.193z M443.04,153.93c-21.183,0-38.417-17.232-38.417-38.417 c0-21.183,17.233-38.417,38.417-38.417c21.183,0,38.417,17.233,38.417,38.417C481.457,136.698,464.223,153.93,443.04,153.93z"/> </g>
</svg>